<svg width="166" height="216" viewBox="0 0 166 216" fill="none" xmlns="http://www.w3.org/2000/svg">
<g clip-path="url(#clip0_3038_51524)">
<path d="M29.4803 0.5H43.7996C45.4436 0.5 47.0303 0.972681 48.3797 1.84082L48.6492 2.01367L48.9187 1.8418C50.2514 0.991177 51.8287 0.500038 53.4998 0.5H62.908L62.8787 0.519531H64.5301C67.2023 0.519558 69.7052 1.77565 71.3113 3.90137C72.9163 6.02562 73.4258 8.78287 72.6893 11.3418V11.3438L72.4187 12.293V12.2939C72.0223 13.6906 71.2862 14.9173 70.323 15.8994L69.4891 16.75H91.8826L91.9959 16.4053L92.5555 14.6855C93.6984 11.2006 96.9467 8.83988 100.62 8.83984H101.23C102.873 8.8399 104.412 9.31169 105.716 10.124L105.837 10.2002H128.794L128.916 10.123C130.236 9.29323 131.784 8.83984 133.4 8.83984H134.01C136.626 8.83984 139.091 10.0397 140.696 12.0977C142.103 13.9014 142.717 16.1874 142.425 18.4355L142.376 18.8047L142.717 18.957C151.653 22.9398 157.89 31.9049 157.89 42.2998V103.056L158.287 103.139C160.382 103.582 162.261 104.82 163.498 106.623L163.499 106.624C165.085 108.918 165.434 111.855 164.433 114.461V114.462L158.262 130.611C158.17 130.852 158.058 131.097 157.939 131.344L157.89 131.446V176.71C157.89 190.804 146.424 202.26 132.34 202.26H88.6033L88.8758 202.945C89.6312 204.844 89.6874 206.978 88.9891 208.941L88.6492 209.892V209.893C87.4501 213.273 84.2487 215.53 80.66 215.53H62.4803C59.7227 215.53 57.1348 214.189 55.5486 211.933C53.9618 209.675 53.5659 206.785 54.491 204.188L54.8299 203.241C54.8668 203.14 54.9038 203.046 54.9441 202.945L55.2186 202.26H36.8699C22.7762 202.26 11.3201 190.794 11.3201 176.71V168.32H8.98027C6.22275 168.32 3.63481 166.979 2.04863 164.723V164.722L1.90215 164.508C0.430051 162.285 0.0944756 159.495 0.991013 156.979L1.33086 156.029C2.35072 153.187 4.78731 151.137 7.66777 150.561L7.8416 150.525L7.9539 150.39C8.42082 149.829 9.15317 148.852 10.2 147.231V147.23L11.2508 145.601L11.3299 145.478V42.29C11.3299 33.4359 15.9784 25.3326 23.2186 20.7217L23.4598 20.5674L23.45 20.2812L23.2996 16.2217L23.2928 16.0303L23.16 15.8926L22.9725 15.6914C22.9108 15.623 22.85 15.5533 22.7898 15.4824L22.4353 15.0439C20.8331 12.9203 20.3237 10.1645 21.0506 7.60645L21.3211 6.65723C22.3598 3.01231 25.6934 0.5 29.4803 0.5Z" stroke="white" stroke-opacity="0.5"/>
<path fill-rule="evenodd" clip-rule="evenodd" d="M132.53 179.64C132.93 179.64 133.29 179.73 133.61 179.92C133.93 180.11 134.18 180.37 134.36 180.72C134.54 181.07 134.64 181.49 134.64 181.99C134.64 182.49 134.55 182.91 134.36 183.26C134.18 183.61 133.93 183.88 133.61 184.07C133.29 184.26 132.94 184.35 132.53 184.35C132.12 184.35 131.77 184.26 131.45 184.07C131.13 183.88 130.88 183.61 130.7 183.26V183.25C130.52 182.9 130.42 182.48 130.42 181.99C130.42 181.5 130.51 181.08 130.7 180.72C130.88 180.37 131.13 180.1 131.45 179.92C131.77 179.73 132.13 179.64 132.53 179.64ZM132.53 180.39C132.28 180.39 132.06 180.45 131.87 180.57C131.68 180.69 131.53 180.87 131.42 181.11C131.31 181.35 131.26 181.64 131.26 181.99C131.26 182.34 131.31 182.63 131.42 182.87C131.53 183.11 131.68 183.29 131.87 183.41C132.06 183.53 132.28 183.59 132.53 183.59C132.78 183.59 133 183.53 133.19 183.41C133.38 183.29 133.53 183.11 133.64 182.87C133.75 182.63 133.8 182.34 133.8 181.99C133.8 181.64 133.75 181.35 133.64 181.11C133.53 180.871 133.38 180.69 133.19 180.57C133 180.45 132.78 180.39 132.53 180.39Z" fill="white"/>
<path d="M126.5 183.34C126.63 183.34 126.74 183.39 126.84 183.48C126.94 183.57 126.99 183.69 126.99 183.82C126.99 183.91 126.97 184 126.92 184.07C126.87 184.15 126.81 184.2 126.74 184.25C126.67 184.3 126.59 184.32 126.5 184.32V184.31C126.36 184.31 126.25 184.27 126.15 184.17C126.06 184.07 126.01 183.96 126.01 183.82C126.01 183.69 126.05 183.57 126.15 183.48C126.25 183.39 126.37 183.34 126.5 183.34Z" fill="white"/>
<path d="M108.24 180.4H106.83V184.28H106.01V180.4H104.59V179.71H108.24V180.4Z" fill="white"/>
<path d="M99.3799 183.3H99.4199L100.61 179.7H101.52L99.9102 184.27H98.8896L97.2803 179.7H98.1904L99.3799 183.3Z" fill="white"/>
<path d="M103.43 184.27H102.6V179.7H103.43V184.27Z" fill="white"/>
<path fill-rule="evenodd" clip-rule="evenodd" d="M112.81 184.27H111.93L111.55 183.14H109.83L109.45 184.27H108.57L110.18 179.7H111.2L112.81 184.27ZM110.05 182.48H111.33L110.71 180.64H110.67L110.05 182.48Z" fill="white"/>
<path d="M114.72 183.58H116.73V184.27H113.89V179.7H114.72V183.58Z" fill="white"/>
<path d="M118.75 183.58H120.76V184.27H117.92V179.7H118.75V183.58Z" fill="white"/>
<path d="M123.24 181.71H123.28L124.4 179.69H125.34L123.68 182.56V184.27H122.84V182.56L121.18 179.69H122.12L123.24 181.71Z" fill="white"/>
<path d="M129.17 184.27H128.34V179.7H129.17V184.27Z" fill="white"/>
<path d="M108.24 95.6602C103.9 95.6602 102.75 96.4001 101.32 101.29L92.5 132.16C92.02 133.93 91.75 135.28 91.75 136.37C91.7501 138.94 93.3805 139.69 96.2305 139.69H99.6201C106.06 139.69 109.52 134.47 115.02 124.7H116.12L109.95 140.85H79.1396L79.4102 139.9C82.6599 139.9 84.2196 139.42 85.3096 135.69L95.0801 101.36C95.5601 99.8004 95.8301 98.6401 95.8301 97.8301C95.8301 96.1401 94.6696 95.6602 91.8896 95.6602L92.1602 94.71H108.58L108.24 95.6602Z" fill="white"/>
<path d="M57.7998 51.7598H73L72.7305 52.71C68.8606 52.71 68.3898 53.6599 67.2998 57.3896L57.5303 91.6504C57.1904 92.94 56.9903 93.8197 56.9902 94.4297C56.9902 96.3297 58.21 96.9404 61.54 96.9404L61.2695 97.8896H44.7803L45.0498 96.9404C48.3097 96.9404 49.8702 96.4601 50.9502 92.7305L60.7197 58.4004C61.1897 56.8405 61.4697 55.6901 61.4697 54.8701C61.4697 53.1702 60.3201 52.7002 57.5303 52.7002L57.7998 51.75V51.7598Z" fill="white"/>
<path d="M58.1904 37.4404C58.3903 37.4405 58.5899 37.4804 58.7598 37.5703C58.9298 37.6603 59.0804 37.7804 59.1904 37.9404C59.3102 38.0903 59.3704 38.2602 59.4004 38.46H58.7803C58.7503 38.3301 58.6801 38.2303 58.5703 38.1504C58.4604 38.0705 58.3303 38.0304 58.1904 38.0303C58.0704 38.0303 57.9496 38.0601 57.8496 38.1201C57.7398 38.1801 57.6595 38.2702 57.5996 38.3701C57.5397 38.47 57.5098 38.5801 57.5098 38.71C57.5098 38.8398 57.5398 38.9597 57.5996 39.0596C57.6595 39.1694 57.7498 39.2496 57.8496 39.3096C57.9496 39.3696 58.0604 39.4004 58.1904 39.4004C58.3301 39.4003 58.4597 39.36 58.5596 39.2803C58.6596 39.2003 58.72 39.0997 58.75 38.9697H59.3701C59.3501 39.1597 59.2799 39.3402 59.1699 39.4902C59.0599 39.6501 58.9199 39.7704 58.75 39.8604C58.5701 39.9503 58.3896 39.9902 58.1797 39.9902C57.9499 39.9902 57.7299 39.9402 57.54 39.8203L57.5498 39.8096C57.35 39.6996 57.2 39.5395 57.0801 39.3496C56.9702 39.1597 56.9102 38.9399 56.9102 38.71C56.9102 38.4801 56.9702 38.2603 57.0801 38.0703C57.2 37.8804 57.3599 37.7203 57.5498 37.6104C57.7398 37.5004 57.9504 37.4404 58.1904 37.4404Z" fill="white"/>
<path fill-rule="evenodd" clip-rule="evenodd" d="M58.1699 36.3496C58.4899 36.3496 58.7999 36.4103 59.0898 36.5303C59.3798 36.6503 59.6299 36.8201 59.8398 37.04C60.0498 37.26 60.2196 37.5101 60.3496 37.79C60.4796 38.07 60.53 38.38 60.54 38.71C60.54 39.0399 60.4803 39.3399 60.3604 39.6299C60.2404 39.9199 60.0696 40.1699 59.8496 40.3799C59.6296 40.5998 59.3795 40.7697 59.0996 40.8896C58.8197 41.0096 58.5096 41.0703 58.1797 41.0703C57.8498 41.0703 57.5497 41.0096 57.2598 40.8896C56.9699 40.7697 56.7197 40.5998 56.5098 40.3799C56.2998 40.1599 56.12 39.9098 56 39.6299H55.9902C55.8702 39.3499 55.8096 39.04 55.8096 38.71C55.8096 38.38 55.87 38.08 56 37.79C56.13 37.5001 56.2898 37.25 56.5098 37.04C56.7297 36.8301 56.9799 36.6503 57.2598 36.5303C57.5497 36.4103 57.85 36.3496 58.1699 36.3496ZM58.1602 37.0098C57.9202 37.0098 57.7098 37.0496 57.5098 37.1396C57.3098 37.2296 57.1297 37.35 56.9697 37.5C56.8098 37.65 56.6903 37.8301 56.6104 38.04C56.5204 38.25 56.4805 38.4602 56.4805 38.7002L56.4697 38.71C56.4697 38.94 56.5096 39.1604 56.5996 39.3604C56.6896 39.5603 56.81 39.7404 56.96 39.9004C57.1099 40.0603 57.3001 40.1798 57.5 40.2598C57.7 40.3398 57.9202 40.3896 58.1602 40.3896C58.4001 40.3896 58.6104 40.3497 58.8203 40.2598C59.0301 40.1698 59.2004 40.0503 59.3604 39.9004C59.5103 39.7505 59.6397 39.5702 59.7197 39.3604C59.8097 39.1604 59.8496 38.9401 59.8496 38.7002C59.8496 38.4702 59.8097 38.25 59.7197 38.04C59.6298 37.8401 59.5103 37.6599 59.3604 37.5C59.2104 37.34 59.0302 37.2196 58.8203 37.1396C58.6204 37.0497 58.4001 37.0098 58.1602 37.0098Z" fill="white"/>
<path fill-rule="evenodd" clip-rule="evenodd" d="M67.6182 36.2998C67.952 36.2998 68.2389 36.3888 68.4775 36.5664C68.716 36.7425 68.898 36.9981 69.0244 37.333C69.1523 37.6668 69.2168 38.0709 69.2168 38.5439C69.2168 39.0196 69.1537 39.4261 69.0273 39.7627C68.901 40.0977 68.718 40.3537 68.4795 40.5312C68.2409 40.7074 67.9534 40.7959 67.6182 40.7959C67.2817 40.7944 66.9944 40.7053 66.7559 40.5293C66.5172 40.3532 66.3344 40.0964 66.208 39.7598C66.0817 39.4233 66.0186 39.018 66.0186 38.5439C66.0186 38.0709 66.0816 37.6663 66.208 37.3311C66.3358 36.9959 66.5193 36.7406 66.7578 36.5645C66.9978 36.3884 67.2845 36.2999 67.6182 36.2998ZM67.6182 36.8584C67.3243 36.8585 67.0933 37.0033 66.9258 37.293C66.7583 37.5827 66.6743 38 66.6729 38.5439C66.6729 38.9072 66.71 39.2146 66.7852 39.4658C66.8619 39.7158 66.9707 39.9059 67.1113 40.0352C67.2518 40.1629 67.4209 40.2265 67.6182 40.2266C67.9136 40.2266 68.1453 40.0823 68.3115 39.7939C68.4789 39.5057 68.5625 39.0889 68.5625 38.5439C68.5625 38.1817 68.524 37.875 68.4473 37.625C68.372 37.3737 68.2631 37.1839 68.1211 37.0547C67.9805 36.924 67.8128 36.8584 67.6182 36.8584Z" fill="white"/>
<path fill-rule="evenodd" clip-rule="evenodd" d="M85.1318 36.2998C85.4656 36.2998 85.7526 36.3888 85.9912 36.5664C86.2296 36.7425 86.4117 36.9981 86.5381 37.333C86.6659 37.6668 86.7305 38.0709 86.7305 38.5439C86.7304 39.0196 86.6674 39.4261 86.541 39.7627C86.4146 40.0977 86.2317 40.3537 85.9932 40.5312C85.7545 40.7074 85.4671 40.7959 85.1318 40.7959C84.7954 40.7944 84.508 40.7053 84.2695 40.5293C84.0309 40.3532 83.8481 40.0964 83.7217 39.7598C83.5954 39.4233 83.5323 39.018 83.5322 38.5439C83.5322 38.0709 83.5953 37.6663 83.7217 37.3311C83.8495 36.9959 84.0329 36.7406 84.2715 36.5645C84.5114 36.3884 84.7982 36.2999 85.1318 36.2998ZM85.1318 36.8584C84.838 36.8585 84.607 37.0033 84.4395 37.293C84.2719 37.5827 84.1879 38 84.1865 38.5439C84.1865 38.9072 84.2237 39.2146 84.2988 39.4658C84.3755 39.7158 84.4844 39.9059 84.625 40.0352C84.7655 40.1629 84.9346 40.2265 85.1318 40.2266C85.4273 40.2266 85.659 40.0823 85.8252 39.7939C85.9926 39.5057 86.0761 39.0889 86.0762 38.5439C86.0762 38.1817 86.0376 37.875 85.9609 37.625C85.8857 37.3737 85.7767 37.1839 85.6348 37.0547C85.4941 36.924 85.3264 36.8584 85.1318 36.8584Z" fill="white"/>
<path fill-rule="evenodd" clip-rule="evenodd" d="M92.7451 36.2998C93.0049 36.2999 93.2359 36.3509 93.4375 36.4531C93.6389 36.5553 93.8018 36.6969 93.9268 36.877C94.0532 37.0573 94.1339 37.2631 94.168 37.4932H93.5186C93.4745 37.3113 93.3865 37.1629 93.2559 37.0479C93.1253 36.9329 92.9551 36.8751 92.7451 36.875C92.4255 36.875 92.176 37.0146 91.9971 37.293C91.8195 37.5714 91.7299 37.9584 91.7285 38.4541H91.7607C91.836 38.3306 91.9278 38.2253 92.0371 38.1387C92.1479 38.0506 92.2718 37.9834 92.4082 37.9365C92.546 37.8883 92.6908 37.8643 92.8428 37.8643C93.0954 37.8643 93.3239 37.9255 93.5283 38.0488C93.7343 38.171 93.8983 38.3407 94.0205 38.5566C94.1427 38.7725 94.2041 39.0194 94.2041 39.2979C94.2041 39.5763 94.1411 39.8288 94.0146 40.0547C93.8897 40.2803 93.7134 40.4588 93.4863 40.5908C93.2591 40.7215 92.9934 40.786 92.6895 40.7832C92.495 40.7804 92.3031 40.7449 92.1143 40.6768C91.9268 40.6086 91.7559 40.4949 91.6025 40.3359C91.4492 40.1769 91.3267 39.9627 91.2344 39.6943C91.1435 39.4259 91.0977 39.0905 91.0977 38.6885C91.0977 38.3078 91.1357 37.9693 91.2109 37.6738C91.2876 37.3787 91.3977 37.1297 91.541 36.9268C91.6844 36.7223 91.8575 36.5665 92.0605 36.46C92.2637 36.3534 92.4923 36.2998 92.7451 36.2998ZM92.7021 38.3984C92.5758 38.3984 92.4585 38.4225 92.3506 38.4707C92.2441 38.519 92.1503 38.5866 92.0693 38.6719C91.9885 38.7571 91.9248 38.8551 91.8779 38.9658C91.8325 39.0751 91.8096 39.1905 91.8096 39.3125C91.8096 39.4758 91.8466 39.6274 91.9219 39.7666C91.9986 39.9058 92.1032 40.0183 92.2354 40.1035C92.3689 40.1873 92.5199 40.2285 92.6875 40.2285C92.855 40.2285 93.0047 40.1878 93.1367 40.1055C93.2688 40.0231 93.3735 39.9125 93.4502 39.7734C93.5269 39.6343 93.5654 39.4784 93.5654 39.3066C93.5654 39.1392 93.5273 38.9863 93.4521 38.8486C93.3784 38.711 93.276 38.6015 93.1455 38.5205C93.0163 38.4396 92.8683 38.3985 92.7021 38.3984Z" fill="white"/>
<path d="M63.8281 36.2998C64.1023 36.2998 64.3439 36.3545 64.5527 36.4639C64.7629 36.5718 64.927 36.7198 65.0449 36.9072C65.1628 37.0933 65.2217 37.3037 65.2217 37.5381C65.2217 37.6999 65.1909 37.858 65.1299 38.0127C65.0702 38.1675 64.9656 38.3409 64.8164 38.5312C64.6673 38.7201 64.4598 38.9491 64.1943 39.2188L63.3271 40.127V40.1582H65.292V40.7236H62.4199V40.2461L63.8965 38.7158C64.054 38.5497 64.1839 38.4042 64.2861 38.2793C64.3898 38.1529 64.4674 38.0326 64.5186 37.9189C64.5696 37.8054 64.5947 37.6844 64.5947 37.5566C64.5947 37.4119 64.5613 37.2866 64.4932 37.1816C64.425 37.0753 64.3316 36.9943 64.2139 36.9375C64.096 36.8793 63.9631 36.8496 63.8154 36.8496C63.6592 36.8496 63.5227 36.8814 63.4062 36.9453C63.2899 37.0092 63.2002 37.0995 63.1377 37.2158C63.0752 37.3322 63.044 37.4689 63.0439 37.625H62.415C62.4151 37.3596 62.4766 37.1275 62.5986 36.9287C62.7208 36.7298 62.8885 36.5752 63.1016 36.4658C63.3146 36.3551 63.5569 36.2998 63.8281 36.2998Z" fill="white"/>
<path d="M71.3809 36.2998C71.655 36.2998 71.8967 36.3545 72.1055 36.4639C72.3157 36.5718 72.4798 36.7198 72.5977 36.9072C72.7155 37.0933 72.7744 37.3037 72.7744 37.5381C72.7744 37.6999 72.7436 37.858 72.6826 38.0127C72.623 38.1675 72.5183 38.3409 72.3691 38.5312C72.22 38.7201 72.0125 38.9491 71.7471 39.2188L70.8799 40.127V40.1582H72.8447V40.7236H69.9727V40.2461L71.4492 38.7158C71.6068 38.5497 71.7367 38.4042 71.8389 38.2793C71.9426 38.1529 72.0202 38.0326 72.0713 37.9189C72.1223 37.8054 72.1475 37.6844 72.1475 37.5566C72.1474 37.4119 72.114 37.2866 72.0459 37.1816C71.9778 37.0753 71.8843 36.9943 71.7666 36.9375C71.6487 36.8793 71.5158 36.8496 71.3682 36.8496C71.212 36.8496 71.0754 36.8814 70.959 36.9453C70.8426 37.0092 70.7529 37.0995 70.6904 37.2158C70.628 37.3322 70.5967 37.4689 70.5967 37.625H69.9678C69.9678 37.3596 70.0293 37.1275 70.1514 36.9287C70.2735 36.7298 70.4412 36.5752 70.6543 36.4658C70.8673 36.3551 71.1096 36.2998 71.3809 36.2998Z" fill="white"/>
<path d="M75.0605 36.2998C75.3347 36.2998 75.5764 36.3545 75.7852 36.4639C75.9953 36.5718 76.1595 36.7197 76.2773 36.9072C76.3952 37.0933 76.4541 37.3037 76.4541 37.5381C76.4541 37.6999 76.4233 37.858 76.3623 38.0127C76.3026 38.1675 76.198 38.3409 76.0488 38.5312C75.8997 38.7201 75.6922 38.9491 75.4268 39.2188L74.5596 40.127V40.1582H76.5244V40.7236H73.6523V40.2461L75.1289 38.7158C75.2865 38.5497 75.4163 38.4042 75.5186 38.2793C75.6222 38.1529 75.6998 38.0326 75.751 37.9189C75.802 37.8054 75.8271 37.6844 75.8271 37.5566C75.8271 37.4119 75.7937 37.2866 75.7256 37.1816C75.6575 37.0753 75.564 36.9943 75.4463 36.9375C75.3284 36.8793 75.1955 36.8496 75.0479 36.8496C74.8917 36.8496 74.7551 36.8814 74.6387 36.9453C74.5223 37.0092 74.4326 37.0995 74.3701 37.2158C74.3077 37.3322 74.2764 37.4689 74.2764 37.625H73.6475C73.6475 37.3596 73.709 37.1275 73.8311 36.9287C73.9532 36.7298 74.1209 36.5752 74.334 36.4658C74.547 36.3551 74.7893 36.2998 75.0605 36.2998Z" fill="white"/>
<path d="M81.3418 36.2998C81.6159 36.2998 81.8576 36.3545 82.0664 36.4639C82.2766 36.5718 82.4407 36.7198 82.5586 36.9072C82.6765 37.0933 82.7354 37.3037 82.7354 37.5381C82.7353 37.6999 82.7045 37.858 82.6436 38.0127C82.5839 38.1675 82.4792 38.3409 82.3301 38.5312C82.181 38.7201 81.9734 38.9491 81.708 39.2188L80.8408 40.127V40.1582H82.8057V40.7236H79.9336V40.2461L81.4102 38.7158C81.5677 38.5497 81.6976 38.4042 81.7998 38.2793C81.9035 38.1529 81.9811 38.0326 82.0322 37.9189C82.0833 37.8054 82.1084 37.6844 82.1084 37.5566C82.1083 37.4119 82.0749 37.2866 82.0068 37.1816C81.9387 37.0753 81.8452 36.9943 81.7275 36.9375C81.6097 36.8793 81.4768 36.8496 81.3291 36.8496C81.1729 36.8496 81.0364 36.8814 80.9199 36.9453C80.8035 37.0092 80.7139 37.0995 80.6514 37.2158C80.5889 37.3322 80.5577 37.4689 80.5576 37.625H79.9287C79.9288 37.3596 79.9903 37.1275 80.1123 36.9287C80.2345 36.7298 80.4022 36.5752 80.6152 36.4658C80.8283 36.3551 81.0706 36.2998 81.3418 36.2998Z" fill="white"/>
<path d="M88.8945 36.2998C89.1687 36.2998 89.4103 36.3545 89.6191 36.4639C89.8293 36.5718 89.9934 36.7198 90.1113 36.9072C90.2292 37.0933 90.2881 37.3037 90.2881 37.5381C90.2881 37.6999 90.2573 37.858 90.1963 38.0127C90.1366 38.1675 90.032 38.3409 89.8828 38.5312C89.7337 38.7201 89.5262 38.9491 89.2607 39.2188L88.3936 40.127V40.1582H90.3584V40.7236H87.4863V40.2461L88.9629 38.7158C89.1204 38.5497 89.2503 38.4042 89.3525 38.2793C89.4562 38.1529 89.5338 38.0326 89.585 37.9189C89.636 37.8054 89.6611 37.6844 89.6611 37.5566C89.6611 37.4119 89.6277 37.2866 89.5596 37.1816C89.4914 37.0753 89.398 36.9943 89.2803 36.9375C89.1624 36.8793 89.0295 36.8496 88.8818 36.8496C88.7256 36.8496 88.5891 36.8814 88.4727 36.9453C88.3563 37.0092 88.2666 37.0995 88.2041 37.2158C88.1416 37.3322 88.1104 37.4689 88.1104 37.625H87.4814C87.4815 37.3596 87.543 37.1275 87.665 36.9287C87.7872 36.7298 87.9549 36.5752 88.168 36.4658C88.381 36.3551 88.6233 36.2998 88.8945 36.2998Z" fill="white"/>
<path d="M79.2686 38.8184H77.334V38.2646H79.2686V38.8184Z" fill="white"/>
<path fill-rule="evenodd" clip-rule="evenodd" d="M43.5303 9.94043C38.9203 9.94043 38.0303 10.5501 38.0303 15.3701V17.2695L38.2998 25.2197H52.1904L56.1396 18.0195C57.6294 15.3699 58.3798 13.5403 58.3799 12.3203C58.3799 10.4203 56.6797 9.94043 53.2197 9.94043L53.4902 8.99023H64.5498L64.2803 9.94043C62.4503 9.94043 61.6998 10.4201 59.2598 14.8301L53.5498 25.2197H98.0498L100.64 17.2998H101.25C101.25 18.4497 101.73 18.6601 103.56 18.6602H130.29C132.12 18.6602 132.73 18.4598 133.41 17.2998H134.02L132.06 25.2197H132.35C141.76 25.2197 149.41 32.8703 149.41 42.2803V121.01C151.31 118.59 153.2 115.39 155.43 111.42H156.52L150.35 127.57V127.56H149.42V176.69C149.42 186.1 141.77 193.75 132.36 193.75H78.2998L76.46 200.23C76.1201 201.45 75.92 202.4 75.9199 203.22C75.9199 205.46 77.4799 206.07 81.0098 206.07L80.6699 207.02H62.4902L62.8301 206.07C67.7799 206.07 68.9402 204.51 70.1602 200.03L71.9805 193.76H36.8799C27.47 193.76 19.8204 186.11 19.8203 176.7V159.82H8.99023L9.33008 158.87C11.36 158.87 13.1299 158.329 17.3398 151.81L19.8203 147.96V42.2695C19.8205 34.4997 25.0503 27.9396 32.1602 25.8896L31.7197 14.3496C31.5797 10.48 31.2399 9.94043 29.21 9.94043L29.4805 8.99023H43.7998L43.5303 9.94043ZM108.85 58.0098C108.58 59.0298 108.38 59.9102 108.38 60.6602C108.38 63.0999 110.35 63.8496 113.47 63.8496L113.2 64.7998H94.9502L95.2197 63.8496C100.04 63.8496 101.19 62.83 102.55 58.1504L111.69 26.1201H99.6201C98.7901 27.4901 97.9696 29.0998 97.0596 31.0098H96.1797L97.7803 26.1201H53.0801L37.0303 55.3398H33.2998L32.21 26.8203C25.58 28.8304 20.7305 35.0001 20.7305 42.29V146.57L37.2998 120.81L37.0996 113.07H43.1396L44.1602 153.85C44.2302 158.06 44.9704 158.87 47.1504 158.87L46.9502 159.82H31.96L32.2305 158.87C37.79 158.87 38.3402 157.85 38.2002 152.83L37.9297 142.58H24.7695L20.75 148.86V158.82C21.13 158.85 21.52 158.86 21.9199 158.86L21.5801 159.81H20.75V176.69C20.7502 185.6 28.0003 192.85 36.9102 192.85H72.2803L73.5303 188.56L69.5898 167.73C68.5698 162.3 68.3699 161.83 66.6699 161.83L66.9404 160.88H80.5098L80.2402 161.83C76.6402 161.83 75.6299 162.58 75.6299 164.75C75.6299 165.5 75.7697 166.45 75.9697 167.74L79.1602 186.87L93.0703 168.01C94.4301 166.11 95.3094 164.69 95.3096 163.74C95.3096 162.45 93.8795 161.84 90.0195 161.84L90.2197 160.89H101.55L101.28 161.84C99.3803 161.84 98.4299 162.65 95.04 167.27L80.1104 187.56L78.5996 192.87H132.4C141.31 192.87 148.56 185.62 148.56 176.71V127.58L148.52 127.56H119.54L119.81 126.61C123.069 126.61 124.63 126.13 125.71 122.4L135.48 88.0703C135.95 86.5103 136.23 85.36 136.23 84.54C136.23 82.84 135.08 82.3701 132.29 82.3701L132.56 81.4199H148.51V42.2695C148.51 33.3597 141.259 26.1104 132.35 26.1104H131.84L130.63 31H129.75C130.08 29.1302 130.29 27.4603 130.29 26.1104H117.92L108.85 58.0098ZM18.3496 152.56C17.3296 154.26 16.6504 155.48 16.6504 156.36C16.6506 157.81 17.9899 158.49 19.8096 158.74V150.27L18.3496 152.56ZM25.3398 141.63H37.8203L37.3496 122.77L25.3398 141.63ZM148.52 82.3799C144.29 82.3999 143.14 83.1802 141.73 88.0098L132.91 118.88C132.44 120.65 132.16 122 132.16 123.09C132.16 125.67 133.79 126.42 136.64 126.42H140.03C143.45 126.42 146.03 124.94 148.51 122.1V82.3896L148.52 82.3799ZM39.1104 49.0195L51.6904 26.1104H38.3301L39.1104 49.0195ZM111.83 19.5996C105.77 19.5996 102.86 21.12 100.16 25.21H111.93L113.53 19.5996H111.83ZM118.18 25.21H130.27C130 20.92 127.54 19.5996 122.56 19.5996H119.78L118.18 25.21Z" fill="white"/>
</g>
<defs>
<clipPath id="clip0_3038_51524">
<rect width="165.51" height="216" fill="white"/>
</clipPath>
</defs>
</svg>
