<svg width="216" height="155" viewBox="0 0 216 155" fill="none" xmlns="http://www.w3.org/2000/svg">
<g clip-path="url(#clip0_3038_51551)">
<path d="M108 0.5C153.829 0.5 191.551 29.7214 197.315 67.4355L197.381 67.8604H200.5L200.887 67.8652C208.992 68.0704 215.5 74.7058 215.5 82.8604C215.5 91.144 208.784 97.8604 200.5 97.8604H194.887L194.774 98.2051C184.203 130.625 149.402 154.49 108 154.49C66.5983 154.49 31.7974 130.625 21.2256 98.2051L21.1133 97.8604H15.5C7.21626 97.8604 0.50019 91.144 0.5 82.8604C0.5 74.5765 7.21614 67.8604 15.5 67.8604H18.6299L18.6943 67.4355C24.4492 29.7215 62.1708 0.5 108 0.5Z" stroke="white" stroke-opacity="0.5"/>
<path fill-rule="evenodd" clip-rule="evenodd" d="M105.52 126.51H105.51L114.95 126.78L114.51 142.41L105.07 142.14C102.15 142.06 99.9199 141.32 98.3799 139.92C96.8399 138.52 96.1097 136.57 96.1797 134.07C96.2497 131.56 97.09 129.66 98.71 128.35C100.33 127.04 102.6 126.43 105.52 126.51ZM105.93 130.97C104.82 130.94 103.95 131.21 103.33 131.78C102.71 132.35 102.39 133.17 102.36 134.24C102.33 135.33 102.61 136.17 103.19 136.76C103.77 137.36 104.62 137.67 105.74 137.7L108.56 137.78L108.75 131.05L105.93 130.97Z" fill="white"/>
<path d="M140.77 136.8L133.73 138.64L125.68 131.39H125.66L127.95 140.15L122.28 141.63L118.32 126.51L125.36 124.67L133.4 131.98H133.44L131.13 123.16H131.14L136.81 121.68L140.77 136.8Z" fill="white"/>
<path d="M81.2803 122.03C82.7101 122.01 84.27 122.26 85.9697 122.78C87.8597 123.36 89.4796 124.17 90.8096 125.21C92.1395 126.25 92.9597 127.41 93.2598 128.7L89.1504 130.11C88.7404 129.36 88.1099 128.65 87.25 128.01C86.38 127.36 85.46 126.89 84.46 126.58C83.7 126.35 83.0798 126.24 82.5898 126.27V126.28C82.0999 126.3 81.8097 126.47 81.7197 126.77C81.6398 127.02 81.7601 127.27 82.0898 127.54C82.4198 127.81 82.9698 128.11 83.7598 128.46L85.7598 129.33C87.9498 130.31 89.4405 131.33 90.2305 132.39C91.0302 133.46 91.2098 134.67 90.79 136.04C90.46 137.1 89.8199 137.91 88.8799 138.47C87.94 139.03 86.7801 139.32 85.4004 139.34C84.0204 139.36 82.5099 139.12 80.8799 138.62C79.24 138.11 77.8299 137.4 76.6699 136.47C75.5101 135.55 74.7703 134.54 74.4502 133.46L78.3203 132.02C78.6603 132.64 79.1702 133.2 79.8301 133.7C80.49 134.2 81.2198 134.57 82.0098 134.81C82.7697 135.04 83.4099 135.15 83.9199 135.11C84.4299 135.07 84.7303 134.91 84.8203 134.62C84.89 134.41 84.7695 134.19 84.4697 133.95C84.1698 133.72 83.6599 133.44 82.9404 133.13L80.8701 132.27C78.6201 131.31 77.0998 130.29 76.2998 129.22C75.4999 128.14 75.3199 126.9 75.7598 125.47C76.0998 124.37 76.75 123.52 77.71 122.94C78.67 122.36 79.8603 122.05 81.2803 122.03Z" fill="white"/>
<path d="M152.62 130.64L147.08 133.58L139.75 119.77L145.29 116.83L152.62 130.64Z" fill="white"/>
<path d="M74.9697 119.33L66.5195 132.48L54.6504 124.85L56.9404 121.29L63.7002 125.63L64.5996 124.22L58.5703 120.35L60.5098 117.34L66.54 121.21L67.5703 119.6L60.6299 115.14L62.917 111.583L74.9697 119.33Z" fill="white"/>
<path d="M176.79 109.69L171.25 115.39L161.67 111.76L161.64 111.79L165.55 121.26L159.99 126.97L148.78 116.07L152.79 111.95L159.08 118.07L159.11 118.04L155.44 109.23L158.85 105.73L167.83 109.08L167.86 109.05L161.57 102.93L165.58 98.81V98.7895L176.79 109.69Z" fill="white"/>
<path d="M58.3301 106.73H58.3096L49.9404 113.64L53.0498 117.41L49.3701 120.45L39.1504 108.05L42.8301 105.01L45.9404 108.78L54.3203 101.87L58.3301 106.73Z" fill="white"/>
<path fill-rule="evenodd" clip-rule="evenodd" d="M108.16 43.1098C134.11 43.1099 155.22 58.5299 155.22 77.4897C155.22 96.4497 134.11 111.87 108.16 111.87C82.2102 111.87 61.0996 96.4497 61.0996 77.4897C61.0998 58.5298 82.2103 43.1098 108.16 43.1098ZM97.04 94.8999C99.33 104.53 103.45 110.98 108.16 110.98C112.75 110.98 116.92 104.52 119.25 94.8999H111.91L109.05 97.6899C108.55 98.1799 107.75 98.1799 107.25 97.6899L104.39 94.8999H97.04ZM81.21 94.8999C86.2 103.55 94.7702 109.64 104.74 110.78C101.1 108.5 98.0299 102.69 96.1699 94.8999H81.21ZM120.17 94.8999C118.31 102.72 115.25 108.49 111.62 110.77C121.57 109.61 130.11 103.53 135.1 94.8999H120.17ZM68.7305 94.8999C75.1704 102.55 85.7299 108.18 98.1396 110.18C90.5398 107.57 84.1904 102.06 80.1904 94.8999H68.7305ZM136.12 94.8999C132.12 102.06 125.77 107.57 118.17 110.18C130.59 108.18 141.14 102.55 147.58 94.8999H136.12ZM62 77.9302C62.11 83.7701 64.2796 89.2503 68.0195 94.0102H79.6797C77.1897 89.2203 75.7605 83.7501 75.6904 77.9302H62ZM76.5703 77.9302C76.6403 83.7701 78.1402 89.2503 80.7002 94.0102H95.9502C95.3502 91.3302 94.9004 88.4198 94.6104 85.3598L86.9902 77.9302H76.5703ZM95.5898 86.3198C95.8798 89.0398 96.2901 91.6202 96.8301 94.0102H103.48L95.5898 86.3198ZM112.82 94.0102H119.45C119.99 91.6103 120.42 89.0302 120.72 86.3003L112.82 94.0102ZM121.72 85.3296C121.43 88.4096 120.98 91.3202 120.39 94.0102H135.61C138.17 89.2503 139.66 83.7701 139.74 77.9302H129.31L121.72 85.3296ZM140.62 77.9302C140.55 83.7501 139.12 89.2303 136.63 94.0102H148.29C152.03 89.2503 154.2 83.7701 154.31 77.9302H140.62ZM118.96 57.81C118.89 57.81 118.77 57.8302 118.66 57.9302L108.81 67.5903L123.72 82.1401L133.63 72.4702C133.72 72.3804 133.74 72.2804 133.74 72.2104C133.74 72.1404 133.72 72.0397 133.63 71.9497L119.26 57.9302C119.15 57.8302 119.03 57.81 118.96 57.81ZM68.0195 60.9604C64.2799 65.7202 62.1001 71.1999 62 77.0395H75.6904C75.7605 71.2199 77.1899 65.7402 79.6797 60.9604H68.0195ZM80.7002 60.9604C78.1403 65.7202 76.6404 71.1998 76.5703 77.0395H86.0801L82.0703 73.1196C81.5603 72.6196 81.5603 71.8003 82.0703 71.3003L92.6699 60.9497H80.7002V60.9604ZM134.25 71.3198C134.76 71.8098 134.76 72.6198 134.25 73.1098L130.221 77.0395H139.74C139.67 71.1999 138.17 65.7202 135.61 60.9604H123.64L134.25 71.3198ZM136.63 60.9604C139.12 65.7502 140.55 71.2198 140.62 77.0395H154.31C154.199 71.1998 152.03 65.7202 148.29 60.9604H136.63ZM108.14 66.9399L108.17 66.9702L114.3 60.9604H102.01L108.14 66.9399ZM108.16 43.9897C103.97 43.9897 100.24 49.1099 97.8604 57.0298C98.0002 57.0897 98.1401 57.1697 98.25 57.2895L101.11 60.0796H115.21L118.05 57.3003C118.17 57.1803 118.31 57.0995 118.45 57.0395C115.97 48.8699 112.14 44.0006 108.16 44.0005V43.9897ZM98.1396 44.7895C85.73 46.7895 75.1704 52.42 68.7305 60.0698H80.1904C84.1904 52.91 90.5398 47.3995 98.1396 44.7895ZM104.74 44.1899C94.7703 45.3299 86.21 51.4199 81.21 60.0698H93.5801L96.4404 57.2798C96.6004 57.12 96.8001 57.0399 97 56.98C98.88 50.75 101.6 46.1599 104.74 44.1899ZM111.72 44.2202C114.77 46.1602 117.45 50.5805 119.37 57.0005C119.56 57.0604 119.73 57.1497 119.88 57.2895L122.73 60.0698H135.1C130.13 51.46 121.62 45.4002 111.72 44.2202ZM118.17 44.7895C125.77 47.3995 132.12 52.9098 136.12 60.0698H147.58C141.14 52.4198 130.59 46.7895 118.17 44.7895Z" fill="white"/>
<path d="M62.917 111.583L62.9102 111.58H62.9199L62.917 111.583Z" fill="white"/>
<path d="M174.65 81.0395C174.94 81.0396 175.2 81.11 175.45 81.23C175.7 81.3499 175.9 81.5199 176.06 81.7397C176.22 81.9597 176.32 82.2002 176.35 82.4702H175.55C175.52 82.2803 175.41 82.1204 175.24 82.0005C175.07 81.8805 174.88 81.8198 174.66 81.8198C174.47 81.8198 174.3 81.8704 174.14 81.9604L174.13 81.9399C173.98 82.0299 173.85 82.1501 173.76 82.31C173.67 82.4699 173.62 82.6398 173.62 82.8296C173.62 83.0195 173.67 83.2001 173.76 83.3501C173.85 83.5001 173.97 83.6302 174.13 83.7202C174.29 83.8102 174.46 83.8598 174.65 83.8598C174.87 83.8598 175.06 83.8 175.21 83.6802C175.36 83.5602 175.46 83.4002 175.5 83.2104H176.3C176.27 83.4803 176.169 83.73 176.02 83.9399C175.87 84.1597 175.68 84.3297 175.44 84.4497C175.201 84.5796 174.94 84.6401 174.65 84.6401C174.32 84.6401 174.02 84.5599 173.75 84.3999C173.48 84.2399 173.26 84.0204 173.1 83.7505C172.94 83.4806 172.86 83.1702 172.86 82.8403C172.86 82.5104 172.94 82.2001 173.1 81.9302C173.26 81.6602 173.48 81.4398 173.75 81.2798C174.02 81.1198 174.32 81.0395 174.65 81.0395Z" fill="white"/>
<path fill-rule="evenodd" clip-rule="evenodd" d="M174.64 79.6001C175.09 79.6001 175.51 79.6801 175.91 79.8501C176.31 80.0201 176.65 80.2503 176.95 80.5503C177.25 80.8502 177.48 81.1904 177.65 81.5903H177.63C177.8 81.9802 177.88 82.4002 177.89 82.8501C177.9 83.3 177.81 83.7199 177.64 84.1098C177.47 84.4997 177.24 84.8499 176.94 85.1499C176.641 85.4498 176.3 85.6801 175.9 85.8501C175.5 86.0201 175.08 86.1001 174.63 86.1001C174.18 86.1001 173.76 86.02 173.37 85.8501C172.98 85.6801 172.63 85.4499 172.33 85.1499C172.03 84.8499 171.8 84.5098 171.63 84.1098C171.46 83.7099 171.38 83.3 171.38 82.8501C171.38 82.4002 171.47 81.9802 171.64 81.5903C171.81 81.2004 172.04 80.8502 172.34 80.5503C172.64 80.2503 172.98 80.0201 173.38 79.8501C173.78 79.6801 174.19 79.6001 174.64 79.6001ZM174.64 80.4204C174.3 80.4204 173.99 80.48 173.7 80.6098C173.41 80.7398 173.15 80.9103 172.92 81.1303C172.7 81.3502 172.52 81.6099 172.4 81.9096C172.27 82.2096 172.21 82.5199 172.21 82.8598C172.21 83.1898 172.27 83.5103 172.4 83.8003C172.53 84.09 172.7 84.3497 172.92 84.5796C173.14 84.7996 173.4 84.9801 173.7 85.1001C173.99 85.23 174.31 85.2895 174.65 85.2895C174.99 85.2895 175.3 85.2299 175.6 85.1001C175.9 84.9701 176.16 84.7996 176.38 84.5796C176.6 84.3596 176.78 84.1002 176.9 83.8003C177.02 83.5103 177.09 83.1898 177.08 82.8598H177.07C177.07 82.5199 177.01 82.2096 176.88 81.9096C176.75 81.6199 176.58 81.3602 176.36 81.1303C176.14 80.9003 175.88 80.7298 175.59 80.6098C175.3 80.4899 174.98 80.4204 174.64 80.4204Z" fill="white"/>
<path fill-rule="evenodd" clip-rule="evenodd" d="M202.459 79.3647C202.849 79.3647 203.195 79.4419 203.497 79.5952C203.8 79.7486 204.045 79.9605 204.232 80.2309C204.422 80.5015 204.543 80.8096 204.594 81.1548H203.619C203.553 80.882 203.422 80.6594 203.226 80.4868C203.03 80.3143 202.774 80.228 202.459 80.228C201.98 80.228 201.605 80.4365 201.337 80.854C201.071 81.2716 200.937 81.8526 200.935 82.5962H200.982C201.095 82.411 201.234 82.2534 201.397 82.1235C201.564 81.9914 201.75 81.8901 201.954 81.8198C202.161 81.7474 202.378 81.7114 202.605 81.7114C202.985 81.7114 203.328 81.8035 203.635 81.9887C203.944 82.172 204.19 82.4257 204.373 82.7495C204.556 83.0733 204.648 83.4442 204.648 83.8618C204.648 84.2794 204.553 84.6578 204.363 84.9966C204.176 85.3352 203.912 85.6041 203.571 85.8022C203.23 85.9982 202.832 86.0936 202.376 86.0893C202.084 86.0851 201.796 86.0324 201.513 85.9302C201.232 85.8279 200.976 85.6569 200.746 85.4184C200.516 85.1798 200.331 84.8592 200.192 84.4565C200.056 84.0538 199.988 83.5507 199.988 82.9477C199.988 82.3767 200.044 81.8694 200.157 81.4262C200.272 80.9832 200.438 80.6098 200.653 80.3052C200.868 79.9984 201.128 79.7648 201.433 79.605C201.737 79.4452 202.08 79.3647 202.459 79.3647ZM202.395 82.5132C202.205 82.5132 202.029 82.5492 201.867 82.6216C201.707 82.694 201.567 82.7946 201.445 82.9223C201.324 83.0501 201.228 83.1977 201.158 83.3637C201.09 83.5277 201.056 83.7011 201.056 83.8843C201.056 84.1293 201.113 84.3561 201.226 84.5649C201.341 84.7737 201.497 84.942 201.695 85.0698C201.895 85.1954 202.121 85.2582 202.372 85.2583C202.623 85.2583 202.849 85.1963 203.047 85.0727C203.245 84.9492 203.402 84.7834 203.517 84.5747C203.632 84.3659 203.689 84.1323 203.689 83.8745C203.689 83.6232 203.632 83.3945 203.52 83.188C203.409 82.9813 203.256 82.8172 203.06 82.6958C202.866 82.5743 202.644 82.5132 202.395 82.5132Z" fill="white"/>
<path d="M14.3604 84.8403H14.4199L16.1797 79.6997H17.21L14.9404 86.02H13.8398L11.5703 79.6997H12.5996L14.3604 84.8403Z" fill="white"/>
<path d="M19.5098 86.02H18.5596V79.6997H19.5098V86.02Z" fill="white"/>
<path d="M25.9102 80.52H23.9404V86.02H22.9902V80.52H21.0195V79.6997H25.9102V80.52Z" fill="white"/>
<path fill-rule="evenodd" clip-rule="evenodd" d="M31.8398 86.02H30.8301L30.25 84.3501H27.7803L27.2002 86.02H26.1904L28.46 79.6997H29.5703L31.8398 86.02ZM28.0596 83.5395H29.9697L29.04 80.8403H28.9902L28.0596 83.5395Z" fill="white"/>
<path d="M34.1396 85.1997H37V86.02H33.1904V79.6997H34.1396V85.1997Z" fill="white"/>
<path d="M45.6299 82.5698H45.7002L47.3496 79.6997H48.4297L46.1396 83.5395V86.02H45.1904V83.5395L42.9004 79.6997H43.9805L45.6299 82.5698Z" fill="white"/>
<path d="M39.4697 85.1899H42.3301V86.0102H38.5195V79.6899H39.4697V85.1899Z" fill="white"/>
<path d="M181.742 79.3647C182.153 79.3647 182.516 79.4468 182.829 79.6108C183.144 79.7727 183.391 79.9946 183.567 80.2759C183.744 80.555 183.832 80.8706 183.832 81.2221C183.832 81.465 183.787 81.7029 183.695 81.935C183.606 82.1672 183.449 82.426 183.226 82.7114C183.002 82.9948 182.69 83.3388 182.292 83.7436L180.991 85.105V85.1528H183.938V86.0005H179.63V85.2837L181.845 82.9897C182.081 82.7404 182.276 82.5219 182.43 82.3344C182.585 82.145 182.701 81.9647 182.777 81.7944C182.854 81.624 182.893 81.4422 182.893 81.2505C182.893 81.0332 182.841 80.8456 182.739 80.688C182.637 80.5283 182.497 80.406 182.32 80.3208C182.144 80.2335 181.944 80.1899 181.723 80.1899C181.488 80.19 181.284 80.2376 181.109 80.3335C180.935 80.4294 180.801 80.565 180.707 80.7397C180.613 80.9144 180.566 81.1187 180.566 81.353H179.623C179.623 80.9546 179.715 80.6064 179.898 80.3081C180.082 80.0098 180.333 79.7788 180.652 79.6147C180.972 79.4485 181.335 79.3647 181.742 79.3647Z" fill="white"/>
<path d="M187.262 79.3647C187.673 79.3647 188.035 79.4468 188.349 79.6108C188.664 79.7727 188.91 79.9946 189.087 80.2759C189.264 80.555 189.352 80.8706 189.352 81.2221C189.352 81.465 189.306 81.7029 189.215 81.935C189.125 82.1672 188.969 82.426 188.745 82.7114C188.521 82.9948 188.21 83.3388 187.812 83.7436L186.511 85.105V85.1528H189.457V86.0005H185.149V85.2837L187.364 82.9897C187.601 82.7404 187.796 82.5219 187.949 82.3344C188.105 82.145 188.22 81.9647 188.297 81.7944C188.374 81.624 188.412 81.4422 188.412 81.2505C188.412 81.0332 188.361 80.8456 188.259 80.688C188.157 80.5283 188.017 80.406 187.84 80.3208C187.663 80.2335 187.464 80.1899 187.242 80.1899C187.008 80.19 186.804 80.2376 186.629 80.3335C186.454 80.4294 186.32 80.565 186.227 80.7397C186.133 80.9144 186.086 81.1187 186.086 81.353H185.143C185.143 80.9546 185.235 80.6064 185.418 80.3081C185.601 80.0098 185.852 79.7788 186.172 79.6147C186.491 79.4485 186.855 79.3647 187.262 79.3647Z" fill="white"/>
<path d="M196.684 79.3647C197.095 79.3647 197.457 79.4468 197.771 79.6108C198.086 79.7727 198.332 79.9946 198.509 80.2759C198.686 80.555 198.773 80.8706 198.773 81.2221C198.773 81.465 198.728 81.7029 198.637 81.935C198.547 82.1672 198.391 82.426 198.167 82.7114C197.943 82.9948 197.632 83.3388 197.233 83.7436L195.933 85.105V85.1528H198.879V86.0005H194.571V85.2837L196.786 82.9897C197.023 82.7404 197.218 82.5219 197.371 82.3344C197.526 82.145 197.642 81.9647 197.719 81.7944C197.795 81.624 197.834 81.4422 197.834 81.2505C197.834 81.0332 197.783 80.8456 197.681 80.688C197.578 80.5283 197.438 80.406 197.262 80.3208C197.085 80.2335 196.886 80.1899 196.664 80.1899C196.43 80.19 196.225 80.2376 196.051 80.3335C195.876 80.4294 195.742 80.565 195.648 80.7397C195.555 80.9144 195.508 81.1187 195.508 81.353H194.564C194.564 80.9546 194.657 80.6064 194.84 80.3081C195.023 80.0098 195.274 79.7788 195.594 79.6147C195.913 79.4485 196.277 79.3647 196.684 79.3647Z" fill="white"/>
<path d="M193.574 83.143H190.672V82.312H193.574V83.143Z" fill="white"/>
<path fill-rule="evenodd" clip-rule="evenodd" d="M180.59 54.2505C181.56 56.1703 181.91 57.8501 181.63 59.27C181.36 60.6873 180.483 61.7653 178.998 62.5151C178.042 62.9903 177.086 63.1086 176.1 62.8696C175.12 62.6295 174.2 62.03 173.33 61.0903H173.31C173.419 61.6602 173.239 62.2397 172.77 62.8296L172.1 63.9204C171.81 64.3702 171.771 64.8103 171.98 65.2202C172.05 65.3501 172.15 65.4905 172.28 65.6303C172.42 65.7702 172.54 65.8797 172.66 65.9497L170.72 67.8003C170.23 67.5403 169.73 67.1195 169.2 66.5395C168.67 65.9597 168.24 65.3302 167.91 64.6704C167.01 62.8904 167.22 61.1101 168.53 59.3501L169.3 58.2798C169.83 57.4598 169.9 56.6696 169.52 55.9096L168.91 54.7104L164.45 56.9604L161.62 51.3403L175.58 44.3003L180.59 54.2505ZM172.12 53.0903L173.58 55.98C173.87 56.55 174.21 56.9201 174.61 57.1001C175.01 57.2799 175.43 57.2596 175.89 57.0298C176.34 56.7998 176.61 56.4802 176.7 56.0503H176.69C176.77 55.6303 176.68 55.1396 176.4 54.5796L174.93 51.6704L172.12 53.0903Z" fill="white"/>
<path d="M41.7305 47.31C42.8902 46.9702 44.05 46.9601 45.2197 47.27L43.8096 52.9399C43.0697 52.81 42.3894 52.8897 41.7695 53.1997C41.1596 53.5097 40.6695 54.0303 40.3096 54.7602C39.8397 55.7101 39.7503 56.6 40.0303 57.4399C40.3102 58.2798 40.9299 58.9397 41.8896 59.4096C42.8495 59.8796 43.7697 59.9299 44.6396 59.56C45.5096 59.1901 46.2198 58.46 46.7598 57.3501C47.2098 56.4301 47.36 55.5399 47.21 54.6899C47.0499 53.84 46.6297 53.1601 45.9297 52.6401L49.2002 47.7602C50.36 48.5202 51.21 49.5199 51.75 50.7397C52.3 51.9697 52.4999 53.3399 52.3799 54.8598C52.2599 56.3797 51.7999 57.9497 51 59.5796C50.09 61.4295 49.0102 62.89 47.7402 63.98C46.4803 65.0699 45.1001 65.7099 43.6201 65.8999L43.6299 65.8803C42.1499 66.0703 40.6498 65.8002 39.1299 65.0503C37.6299 64.3203 36.5005 63.3298 35.7305 62.0698C34.9605 60.8098 34.5899 59.3798 34.6299 57.7798C34.6699 56.1799 35.1206 54.5003 35.9805 52.7505C36.6804 51.3306 37.5199 50.1502 38.5098 49.2202C39.4998 48.2902 40.5705 47.65 41.7305 47.31Z" fill="white"/>
<path d="M178.99 62.52C178.993 62.5186 178.995 62.5165 178.998 62.5151C179.002 62.5132 179.006 62.5121 179.01 62.5102L178.99 62.52Z" fill="white"/>
<path d="M170.87 38.77L168.01 41.8901L162.08 36.4702L160.95 37.6997L166.24 42.5395L163.82 45.1802L158.53 40.3403L157.24 41.7505L163.33 47.3198L160.47 50.4399V50.4497L149.9 40.77L160.46 29.2397L170.87 38.77Z" fill="white"/>
<path d="M65.3799 33.1001C66.8699 34.8401 67.4195 36.6801 67.0195 38.6401C66.6295 40.6 65.31 42.53 63.0801 44.4399C60.8502 46.3498 58.7302 47.3501 56.7402 47.4302L56.7305 47.4497C54.7305 47.5397 52.9898 46.7102 51.5098 44.9702L45.7002 38.1704L50.4902 34.0796L56.0898 40.6304C56.6498 41.2703 57.2602 41.6104 57.9102 41.6304C58.56 41.6503 59.2398 41.3598 59.9297 40.77C60.6197 40.17 61.0098 39.5499 61.0898 38.8999C61.1698 38.2499 60.9299 37.5997 60.3799 36.9497L54.7803 30.3901L59.5703 26.3003L65.3799 33.1001Z" fill="white"/>
<path d="M139.85 18.3003L139.91 28.5503L139.95 28.5698L147.38 21.52L154.71 24.6499L148.56 39.02L143.27 36.7602L146.72 28.6899L146.68 28.6704L139.78 35.2602L135.29 33.3403L135.19 23.7505L135.15 23.73H135.13L131.68 31.8003L126.39 29.5395L132.54 15.1704L139.85 18.3003Z" fill="white"/>
<path d="M77.5303 18.1899C79.0201 18.15 80.23 18.4499 81.1699 19.0698L79.1299 22.6704C78.47 22.4104 77.7302 22.3001 76.9004 22.3501C76.0704 22.4001 75.2698 22.5799 74.5098 22.8999C73.7799 23.2098 73.2303 23.5402 72.8604 23.8901C72.4804 24.2401 72.3605 24.5603 72.4805 24.8403C72.5706 25.04 72.8001 25.1295 73.1797 25.1196C73.5597 25.0996 74.12 24.9902 74.8799 24.7602L77.0195 24.0903C79.3595 23.3803 81.1805 23.1797 82.4805 23.4897C83.7803 23.7998 84.7199 24.6404 85.2998 26.0102C85.7498 27.0802 85.8004 28.1505 85.4404 29.2104C85.0804 30.2803 84.36 31.2805 83.29 32.2104C82.2201 33.1404 80.8596 33.9599 79.2197 34.6499C77.3899 35.4198 75.6401 35.8399 73.9502 35.8999C72.2603 35.9599 70.8901 35.5902 69.8301 34.8003L72.0703 31.0698C72.8702 31.3897 73.81 31.5204 74.8799 31.4604C75.9498 31.4004 76.9698 31.1701 77.9297 30.7602C78.6594 30.4503 79.2096 30.1302 79.5596 29.8003C79.9096 29.4703 80.0302 29.1498 79.9102 28.8598C79.8001 28.6199 79.54 28.5103 79.1201 28.5102C78.7001 28.5202 78.08 28.6404 77.25 28.8804L75.1602 29.5102C72.8602 30.1602 71.0595 30.3395 69.7695 30.0395V30.0298C68.4798 29.7297 67.5599 28.9199 67 27.6001C66.56 26.5702 66.5298 25.5401 66.8896 24.5102C67.2596 23.4702 67.96 22.5001 69 21.6001C70.0399 20.7001 71.35 19.9204 72.9199 19.2505C74.5099 18.5805 76.0403 18.2299 77.5303 18.1899Z" fill="white"/>
<path d="M101.39 17.4497L96.5703 18.2602L98.3701 28.9702L92.1602 30.0102L90.3604 19.3003L85.54 20.1098L84.75 15.3999L100.6 12.7397L101.39 17.4497Z" fill="white"/>
<path fill-rule="evenodd" clip-rule="evenodd" d="M110.2 13.1499C111.8 12.59 113.63 12.3903 115.68 12.5503C117.73 12.7103 119.5 13.2002 121 14.0102C122.5 14.8202 123.62 15.8902 124.37 17.2202C125.12 18.5501 125.43 20.0499 125.3 21.6997C125.17 23.3597 124.63 24.79 123.67 25.98C122.72 27.1799 121.44 28.0496 119.83 28.6196C118.22 29.1796 116.4 29.3802 114.35 29.2202C112.3 29.0602 110.53 28.5701 109.03 27.7602C107.53 26.9503 106.41 25.8801 105.66 24.5503C104.91 23.2203 104.6 21.7298 104.73 20.0698C104.861 18.4099 105.4 16.9795 106.36 15.7895C107.31 14.5898 108.59 13.7198 110.2 13.1499ZM115.3 17.3198C114.09 17.2198 113.09 17.4701 112.31 18.06C111.53 18.65 111.1 19.49 111.01 20.5698V20.56C110.93 21.64 111.22 22.5397 111.9 23.2397C112.58 23.9497 113.52 24.3497 114.73 24.4497C115.94 24.5496 116.94 24.3001 117.72 23.7104C118.5 23.1204 118.93 22.2797 119.02 21.1997C119.109 20.1198 118.81 19.2199 118.13 18.52C117.45 17.81 116.51 17.4098 115.3 17.3198Z" fill="white"/>
</g>
<defs>
<clipPath id="clip0_3038_51551">
<rect width="216" height="154.97" fill="white"/>
</clipPath>
</defs>
</svg>
